<?xml version="1.0" encoding="utf-8"?>
<!-- Generator: Adobe Illustrator 27.9.0, SVG Export Plug-In . SVG Version: 6.00 Build 0)  -->
<svg version="1.1" id="Ebene_1" xmlns="http://www.w3.org/2000/svg" xmlns:xlink="http://www.w3.org/1999/xlink" x="0px" y="0px"
	 viewBox="0 0 660 400" style="enable-background:new 0 0 660 400;" xml:space="preserve">
<style type="text/css">
	.st0{fill:#1D1D21;}
	.st1{fill:#FFFFFF;}
	.st2{fill:none;stroke:#E6007D;stroke-width:8;stroke-miterlimit:10;}
</style>
<g>
	<path class="st0" d="M250.7,283.4c0.6-0.1,1.1-0.2,1.5-0.5c0.4-0.2,0.8-0.6,1-1s0.2-0.8,0-1.2c-0.2-0.4-0.6-0.6-1-0.6
		c-0.5,0-1,0.1-1.4,0.4h-0.1c-0.4,0.2-0.8,0.6-1,1s-0.2,0.8,0,1.2S250.3,283.3,250.7,283.4z"/>
	<polygon class="st0" points="227.2,240.9 222.7,241 224.3,243.9 	"/>
	<polygon class="st0" points="236.4,244.8 230.4,248 233,252.9 239,249.7 	"/>
	<polygon class="st0" points="225.9,247 228.4,243.2 224.3,244 	"/>
	<path class="st0" d="M233.3,241.7l-2.2-4l-2.8,1.5c-0.9,0.5-1.2,1.6-0.7,2.5l0.5,0.8c0.5,0.9,1.6,1.2,2.5,0.7L233.3,241.7z"/>
	<path class="st0" d="M255.1,287.4c0.2,0.1,0.5,0,0.7-0.1s0.4-0.3,0.5-0.5c0.1-0.3,0-0.5-0.1-0.7l-0.4-0.8l-1.7,0.8l0.4,0.8
		C254.6,287.1,254.8,287.3,255.1,287.4z"/>
	<polygon class="st0" points="243.6,264.2 241.6,264.6 242.2,265.7 	"/>
	<path class="st0" d="M500.4,191.5c-47.4-19.1-75.6-68.1-68.2-118.7c0.2-1.1,0.3-2.3,0.3-3.5c0-10.8-8.8-19.6-19.6-19.6
		c-3.7,0-7.2,1-10.1,2.8c-0.3,0.2-0.5,0.3-0.8,0.5c-0.5,0.3-0.9,0.6-1.3,0.9c-14.5,11.6-37.2,24.2-69,24.2
		c-32.3,0-52.9-11.9-66.9-22.6c-3.6-3.8-8.6-6.1-14.2-6.1c-10.8,0-19.7,8.8-19.7,19.6c0,0.9,0.1,1.9,0.2,2.8c0,0.1,0,0.2,0,0.3
		c7.6,50.5-20.3,99.6-67.4,118.9c-8.1,2.4-14.1,9.9-14.1,18.9c0,8.1,5,15.1,12,18.1c0.2,0.1,0.3,0.1,0.4,0.2
		c47.1,18.5,75.6,66.5,69.4,116.6c0.1-0.3,0.2-0.6,0.3-0.8c0-0.2,0.1-0.3,0.2-0.3c-0.1,0.1-0.1,0.2-0.2,0.3
		c-0.8,2.1-1.2,4.5-1.2,6.9c0,11.1,9,20,20,20s20-9,20-20c0-1.7-0.2-3.4-0.6-5l-2.7-15.6c-0.3-2,0.7-3.9,2.5-4.7l2.9-0.5
		c2.3-0.4,4.5,1.1,4.9,3.5l3,17.2c0.3,1.8,2.1,3.1,4,2.8l20.1-3.5l0.8-0.2c1.8-0.3,3.1-2.1,2.8-3.9l-2.9-16.4l-0.2-0.8
		c-0.4-2.3,1.1-4.5,3.4-4.9l2.7-0.5c2.1,0,3.8,1.5,4.2,3.5l3,17c0.4,2.2,2.3,3.7,4.5,3.5c5.7-0.4,11.4-0.4,17.1,0
		c2.2,0.2,4.1-1.3,4.5-3.5l3-17c0.3-2,2-3.4,4-3.5l2.9,0.5c2.3,0.4,3.9,2.6,3.5,4.9l-3,17.2c-0.3,1.8,0.9,3.6,2.7,3.9l20.1,3.6
		l0.8,0.2c1.9,0.3,3.6-0.9,4-2.8l2.9-16.4l0.2-0.8c0.4-2.3,2.6-3.9,4.9-3.5l2.7,0.5c1.9,0.7,3,2.7,2.7,4.7l-2.6,14.9
		c-0.5,1.7-0.8,3.6-0.8,5.5c0,11,8.9,19.9,19.9,19.9s19.9-8.9,19.9-19.9c0-1.5-0.2-3-0.5-4.5c-6.8-50.4,21.6-99.1,68.9-117.9
		c7.5-2.7,12.8-9.9,12.8-18.4C513.7,201.4,508.1,194.1,500.4,191.5z M169.2,218.5c-4.7,0-8.5-3.8-8.5-8.5s3.8-8.5,8.5-8.5
		s8.5,3.8,8.5,8.5S173.9,218.5,169.2,218.5z M250.4,60.6c4.7,0,8.5,3.8,8.5,8.5s-3.8,8.5-8.5,8.5s-8.5-3.8-8.5-8.5
		S245.7,60.6,250.4,60.6z M252.4,287.6l-0.6,0.3l-1.1-2l0.6-0.3l0.4,0.5l3.5-1.9l-0.2-0.6l0.6-0.3l0.3,0.5l1,1.8
		c0.3,0.5,0.4,1,0.3,1.5s-0.4,0.9-0.9,1.1c-0.4,0.3-0.9,0.3-1.4,0.1s-0.9-0.6-1.1-1.1l-0.5-0.8l-1.1,0.6L252.4,287.6z M248.1,279.7
		l-0.6,0.3l-1.1-2l0.5-0.3l0.4,0.5l3.5-1.9l-0.2-0.6l0.6-0.3l1.1,2l-0.6,0.3l-0.4-0.5l-3.4,1.9L248.1,279.7z M240.5,264.7l-0.8,0.1
		l0.1,0.4l-0.6,0.3l-0.9-1.6l0.9-0.3l0.2,0.3l5-0.9l0.5,1l-3.4,3.8l0.1,0.4l-0.6,0.3l-0.9-1.6l0.6-0.3l0.2,0.3l0.5-0.6L240.5,264.7z
		 M240.2,273.9c0-0.3,0.2-0.5,0.4-0.7c0.3-0.2,0.6-0.2,0.9-0.1c0.3,0.1,0.6,0.3,0.7,0.6c0.2,0.3,0.2,0.6,0.2,0.9
		c-0.2,0.6-0.8,0.9-1.4,0.8c-0.3-0.1-0.6-0.3-0.7-0.6C240.1,274.5,240.1,274.2,240.2,273.9z M241.5,269.3l0.6-0.3l0.4,0.4l3.4-1.9
		l-0.1-0.6l0.6-0.3l0.2,0.5l0.6,1l0.2,0.5l-0.5,0.3l-0.4-0.4l-3.4,1.9l0.7,1.3l0.7-0.3l0.4,0.8l-1.4,0.7L241.5,269.3z M244.5,273.3
		l0.4,0.5l3.5-1.9l-0.2-0.6l0.6-0.3l0.3,0.5l0.5,1l0.3,0.5l-0.6,0.3l-0.4-0.4l-3.4,1.8l0.8,1.4l0.6-0.3l0.4,0.7l-1.4,0.8l-2-3.6
		L244.5,273.3z M248.8,281.1c0.3-0.7,0.8-1.2,1.4-1.6h0.1c0.6-0.4,1.4-0.5,2.1-0.4c1.3,0.3,2.1,1.7,1.8,3c0,0.1,0,0.1-0.1,0.2
		c-0.2,0.6-0.7,1.2-1.4,1.6c-0.6,0.4-1.4,0.5-2.1,0.4c-0.7-0.1-1.3-0.6-1.6-1.2C248.6,282.5,248.6,281.8,248.8,281.1z M250.6,291.5
		c0.3-0.2,0.6-0.2,0.9-0.1c0.3,0.1,0.6,0.3,0.7,0.6c0.2,0.3,0.2,0.6,0.1,0.9c-0.2,0.6-0.8,0.9-1.4,0.8c-0.6-0.2-1-0.9-0.9-1.5
		C250.2,291.8,250.4,291.6,250.6,291.5z M242.1,258.7c0.2,0.3,0.3,0.7,0.4,1.1c0,0.3,0,0.7-0.1,1l-1.1,0.6l-0.4-0.7l0.6-0.5
		c0-0.2,0-0.3,0-0.5s-0.1-0.4-0.2-0.5c-0.2-0.4-0.6-0.7-1-0.7c-0.5,0-1,0.1-1.4,0.3l-0.2,0.1c-0.4,0.2-0.8,0.6-1,1s-0.2,0.8,0.1,1.2
		c0.1,0.2,0.2,0.3,0.4,0.5c0.1,0.1,0.3,0.2,0.4,0.2l0.7-0.2l0.4,0.7l-1,0.5c-0.3-0.1-0.7-0.2-0.9-0.4c-0.3-0.2-0.6-0.6-0.8-0.9
		c-0.4-0.6-0.4-1.3-0.2-2s0.7-1.3,1.4-1.6l0.2-0.1c0.6-0.4,1.4-0.5,2.1-0.3S241.7,258.1,242.1,258.7z M210,248.2l10.2-5.6
		c-2.9,3.7-6.5,8.3-6.9,11.7L210,248.2z M215.9,259.1l-0.9-1.6c3.4-2.4,7.2-5.8,8.7-9.6l-2.8-5.2l-0.1-0.1c-4-0.9-9,0.4-12.9,1.9
		l-0.6-1.2c-0.9-1.6-0.9-3.5-0.2-5.2c1.3-2.9,4.8-4.2,7.7-2.9l7.5,3.4l5.4-2.9c0.1-0.1,0.2-0.1,0.3-0.2c2.8-1.4,6.1-0.3,7.5,2.5
		s0.3,6.1-2.5,7.5l3.2-1.8c0.6-0.4,1.4-0.1,1.8,0.5l2.4,4.3c0.3,0.6,0.1,1.4-0.5,1.9l-6.4,3.4l-12.5,6.8
		C219.2,261.6,216.9,260.9,215.9,259.1z M226.9,272.5l6-3.3c0.3-0.2,0.5-0.4,0.6-0.6c0-0.2,0-0.4-0.1-0.6s-0.2-0.3-0.4-0.4
		s-0.4-0.1-0.5,0l-6.4,3.5l-0.9-1.6l6-3.3c0.3-0.1,0.5-0.3,0.6-0.6c0.1-0.2,0-0.4-0.1-0.6s-0.2-0.3-0.4-0.4s-0.3-0.1-0.5-0.1
		l-6.4,3.5l-0.9-1.7l8.2-4.5l0.7,1.5l-0.8,0.5c0.4,0,0.8,0.1,1.1,0.2c0.4,0.2,0.6,0.5,0.8,0.8s0.3,0.6,0.3,1c0,0.3-0.1,0.6-0.4,0.9
		c0.4,0,0.7,0.1,1,0.3c0.3,0.2,0.6,0.5,0.7,0.8c0.1,0.3,0.2,0.5,0.3,0.8c0,0.3,0,0.6-0.1,0.8c-0.1,0.3-0.3,0.6-0.5,0.8
		c-0.3,0.3-0.6,0.5-1,0.7l-6,3.3L226.9,272.5z M232.1,343.1L232.1,343.1c0.1-0.3,0.3-0.6,0.4-0.9
		C232.3,342.5,232.2,342.8,232.1,343.1z M229.1,276.5l1.5-0.8l1.4,2.5l5.2-2.9l-1.4-2.5l1.4-0.8l2.4,4.4l-6.7,3.7l1.4,2.4l-1.5,0.8
		L229.1,276.5z M236.9,290.8l5.2-2.8c0.3-0.1,0.6-0.3,0.8-0.6c0.4-0.3,0.5-0.8,0.4-1.3c-0.1-0.3-0.2-0.5-0.3-0.8
		c-0.4-0.7-1.2-1.2-2-1.2l-5.9,3.3l-1-1.8l8.2-4.5l0.8,1.6l-1.1,0.8c0.6,0.1,1.1,0.3,1.6,0.5c0.5,0.3,0.9,0.7,1.1,1.2
		c0.2,0.4,0.4,0.8,0.5,1.2c0.1,0.4,0,0.8-0.1,1.2c-0.1,0.4-0.4,0.8-0.7,1.1c-0.4,0.4-0.9,0.7-1.4,1l-5.1,2.9L236.9,290.8z
		 M240.5,293.9l1.4,2.6l5.2-2.9l-1.4-2.6l1.5-0.8l2.4,4.4l-6.7,3.7l1.4,2.4l-1.5,0.8l-3.8-6.8L240.5,293.9z M250.5,359.5
		c-4.7,0-8.6-3.8-8.6-8.6c0-4.7,3.8-8.6,8.6-8.6c4.7,0,8.6,3.8,8.6,8.6C259.1,355.6,255.2,359.5,250.5,359.5z M259,292.6l-0.4-0.7
		l0.6-0.4l-0.9-1.5l-1.2,0.7l0.9,1.6l-0.8,0.4l-0.8-1.6l-1.4,0.8l0.8,1.5l0.6-0.3l0.4,0.8l-1.3,0.7l-2.1-3.8l0.6-0.3l0.4,0.4
		l3.4-1.9l-0.2-0.6l0.6-0.3l0.3,0.5l1.8,3.3L259,292.6z M283.7,250.8h-10V233h10V250.8z M283.7,225h-10v-17.8h10V225z M283.7,199.2
		h-10v-17.8h10V199.2z M283.7,173.4h-10v-17.8h10V173.4z M283.7,147.6h-10v-17.9h10V147.6z M310.1,250.8h-10V233h10V250.8z
		 M310.1,225h-10v-17.8h10V225z M310.1,199.2h-10v-17.8h10V199.2z M310.1,173.4h-10v-17.8h10V173.4z M310.1,147.6h-10v-17.9h10
		V147.6z M336.4,250.8h-10V233h10V250.8z M336.4,225h-10v-17.8h10V225z M336.4,199.2h-10v-17.8h10V199.2z M336.4,173.4h-10v-17.8h10
		V173.4z M336.4,147.6h-10v-17.9h10V147.6z M362.7,250.8h-10V233h10V250.8z M362.7,225h-10v-17.8h10V225z M362.7,199.2h-10v-17.8h10
		V199.2z M362.7,173.4h-10v-17.8h10V173.4z M362.7,147.6h-10v-17.9h10V147.6z M389,250.9h-10V233h10V250.9z M389,225.1h-10v-17.9h10
		V225.1z M389,199.3h-10v-17.9h10V199.3z M389,173.5h-10v-17.9h10V173.5z M389,147.7h-10v-17.9h10V147.7z M412.6,359.2
		c-4.7,0-8.5-3.8-8.5-8.5s3.8-8.5,8.5-8.5s8.5,3.8,8.5,8.5C421.1,355.4,417.3,359.2,412.6,359.2z M412.9,77.8
		c-4.7,0-8.5-3.8-8.5-8.5s3.8-8.5,8.5-8.5s8.5,3.8,8.5,8.5S417.6,77.8,412.9,77.8z M494.1,218.5c-4.7,0-8.5-3.8-8.5-8.5
		s3.8-8.5,8.5-8.5s8.5,3.8,8.5,8.5S498.8,218.5,494.1,218.5z"/>
</g>
<path class="st1" d="M241.3,261.4l-0.4-0.7l0.6-0.5c0-0.2,0-0.3,0-0.5s-0.1-0.4-0.2-0.5c-0.2-0.4-0.6-0.7-1-0.7
	c-0.5,0-1,0.1-1.4,0.3l-0.2,0.1c-0.4,0.2-0.8,0.6-1,1s-0.2,0.8,0.1,1.2c0.1,0.2,0.2,0.3,0.4,0.5c0.1,0.1,0.3,0.2,0.4,0.2l0.7-0.2
	l0.4,0.7l-1,0.5c-0.3-0.1-0.7-0.2-0.9-0.4c-0.3-0.2-0.6-0.6-0.8-0.9c-0.4-0.6-0.4-1.3-0.2-2s0.7-1.3,1.4-1.6l0.2-0.1
	c0.6-0.4,1.4-0.5,2.1-0.3c0.7,0.2,1.2,0.6,1.6,1.2c0.2,0.3,0.3,0.7,0.4,1.1c0,0.3,0,0.7-0.1,1L241.3,261.4z"/>
<path class="st1" d="M241.6,264.6l0.6,1.1l1.4-1.5l0,0L241.6,264.6z M239.2,263.6l0.2,0.3l5-0.9l0.5,1l-3.4,3.8l0.1,0.4l-0.6,0.3
	l-0.9-1.6l0.6-0.3l0.2,0.3l0.5-0.6l-0.9-1.6l-0.8,0.1l0.1,0.4l-0.6,0.3l-0.9-1.6L239.2,263.6z"/>
<polygon class="st1" points="241.5,269.3 242.1,269 242.5,269.4 245.9,267.5 245.8,266.9 246.4,266.6 246.6,267.1 247.2,268.1 
	247.4,268.6 246.9,268.9 246.5,268.5 243.1,270.4 243.8,271.7 244.5,271.4 244.9,272.2 243.5,272.9 "/>
<polygon class="st1" points="243.9,273.7 244.5,273.3 244.9,273.8 248.4,271.9 248.2,271.3 248.8,271 249.1,271.5 249.6,272.5 
	249.9,273 249.3,273.3 248.9,272.9 245.5,274.7 246.3,276.1 246.9,275.8 247.3,276.5 245.9,277.3 "/>
<polygon class="st1" points="250.6,275.7 251.2,275.4 252.3,277.4 251.7,277.7 251.3,277.2 247.9,279.1 248.1,279.7 247.5,280 
	246.4,278 246.9,277.7 247.3,278.2 250.8,276.3 "/>
<path class="st1" d="M252.2,282.9c0.4-0.2,0.8-0.6,1-1s0.2-0.8,0-1.2c-0.2-0.4-0.6-0.6-1-0.6c-0.5,0-1,0.1-1.4,0.4h-0.1
	c-0.4,0.2-0.8,0.6-1,1s-0.2,0.8,0,1.2c0.2,0.4,0.6,0.6,1,0.7C251.3,283.3,251.8,283.2,252.2,282.9L252.2,282.9z M252.7,283.9
	c-0.6,0.4-1.4,0.5-2.1,0.4c-0.7-0.1-1.3-0.6-1.6-1.2c-0.4-0.6-0.4-1.3-0.2-2c0.3-0.7,0.8-1.2,1.4-1.6h0.1c0.6-0.4,1.4-0.5,2.1-0.4
	c1.3,0.3,2.1,1.7,1.8,3c0,0.1,0,0.1-0.1,0.2C253.9,282.9,253.4,283.5,252.7,283.9L252.7,283.9z"/>
<path class="st1" d="M254.1,286.1l0.4,0.8c0.1,0.2,0.3,0.4,0.6,0.5c0.2,0.1,0.5,0,0.7-0.1s0.4-0.3,0.5-0.5c0.1-0.3,0-0.5-0.1-0.7
	l-0.4-0.8L254.1,286.1z M256.9,285.6c0.3,0.5,0.4,1,0.3,1.5s-0.4,0.9-0.9,1.1c-0.4,0.3-0.9,0.3-1.4,0.1c-0.5-0.2-0.9-0.6-1.1-1.1
	l-0.5-0.8l-1.1,0.6l0.2,0.6l-0.6,0.3l-1.1-2l0.6-0.3l0.4,0.5l3.5-1.9l-0.2-0.6l0.6-0.3l0.3,0.5L256.9,285.6z"/>
<polygon class="st1" points="257.2,292.7 256.4,291.1 255,291.9 255.8,293.4 256.4,293.1 256.8,293.9 255.5,294.6 253.4,290.8 
	254,290.5 254.4,290.9 257.8,289 257.6,288.4 258.2,288.1 258.5,288.6 260.3,291.9 259,292.6 258.6,291.9 259.2,291.5 258.3,290 
	257.1,290.7 258,292.3 "/>
<path class="st1" d="M232.4,263.3l-0.8,0.5c0.4,0,0.8,0.1,1.1,0.2c0.4,0.2,0.6,0.5,0.8,0.8s0.3,0.6,0.3,1c0,0.3-0.1,0.6-0.4,0.9
	c0.4,0,0.7,0.1,1,0.3c0.3,0.2,0.6,0.5,0.7,0.8c0.1,0.3,0.2,0.5,0.3,0.8c0,0.3,0,0.6-0.1,0.8c-0.1,0.3-0.3,0.6-0.5,0.8
	c-0.3,0.3-0.6,0.5-1,0.7l-6,3.3l-0.9-1.7l6-3.3c0.3-0.2,0.5-0.4,0.6-0.6c0-0.2,0-0.4-0.1-0.6s-0.2-0.3-0.4-0.4s-0.4-0.1-0.5,0
	l-6.4,3.5l-0.9-1.6l6-3.3c0.3-0.1,0.5-0.3,0.6-0.6c0.1-0.2,0-0.4-0.1-0.6s-0.2-0.3-0.4-0.4s-0.3-0.1-0.5-0.1l-6.4,3.5l-0.9-1.7
	l8.2-4.5L232.4,263.3z"/>
<path class="st1" d="M240.6,273.2c0.3-0.2,0.6-0.2,0.9-0.1c0.3,0.1,0.6,0.3,0.7,0.6c0.2,0.3,0.2,0.6,0.2,0.9
	c-0.2,0.6-0.8,0.9-1.4,0.8c-0.3-0.1-0.6-0.3-0.7-0.6c-0.2-0.3-0.2-0.6-0.1-0.9C240.2,273.6,240.4,273.4,240.6,273.2 M237.2,272
	l2.4,4.4l-6.7,3.7l1.4,2.4l-1.5,0.8l-3.7-6.8l1.5-0.8l1.4,2.5l5.2-2.9l-1.4-2.5L237.2,272z"/>
<path class="st1" d="M243.1,282.7l-1.1,0.8c0.6,0.1,1.1,0.3,1.6,0.5c0.5,0.3,0.9,0.7,1.1,1.2c0.2,0.4,0.4,0.8,0.5,1.2
	c0.1,0.4,0,0.8-0.1,1.2c-0.1,0.4-0.4,0.8-0.7,1.1c-0.4,0.4-0.9,0.7-1.4,1l-5.1,2.9l-1-1.8l5.2-2.8c0.3-0.1,0.6-0.3,0.8-0.6
	c0.4-0.3,0.5-0.8,0.4-1.3c-0.1-0.3-0.2-0.5-0.3-0.8c-0.4-0.7-1.2-1.2-2-1.2l-5.9,3.3l-1-1.8l8.2-4.5L243.1,282.7z"/>
<path class="st1" d="M250.6,291.5c0.3-0.2,0.6-0.2,0.9-0.1c0.3,0.1,0.6,0.3,0.7,0.6c0.2,0.3,0.2,0.6,0.1,0.9
	c-0.2,0.6-0.8,0.9-1.4,0.8c-0.6-0.2-1-0.9-0.9-1.5C250.2,291.8,250.4,291.6,250.6,291.5 M247.2,290.2l2.4,4.4l-6.7,3.7l1.4,2.4
	l-1.5,0.8l-3.8-6.8l1.5-0.8l1.4,2.6l5.2-2.9l-1.4-2.6L247.2,290.2z"/>
<path class="st1" d="M230.4,248l6-3.2l2.6,4.9l-6,3.2L230.4,248z M224.3,244l4.1-0.8l-2.5,3.8L224.3,244z M222.7,241l4.5-0.1l-2.9,3
	L222.7,241z M231.1,237.7l2.2,4l-2.7,1.5c-0.9,0.5-2,0.2-2.5-0.7l0,0l-0.5-0.8c-0.5-0.9-0.2-2,0.7-2.5l0,0L231.1,237.7z
	 M240.4,248.5l-2.4-4.3c-0.4-0.6-1.2-0.9-1.8-0.5l-3.2,1.8c2.8-1.4,3.9-4.7,2.5-7.5s-4.7-3.9-7.5-2.5c-0.1,0.1-0.2,0.1-0.3,0.2
	l-5.4,2.9l-7.5-3.4c-2.9-1.3-6.4,0-7.7,2.9c-0.7,1.7-0.7,3.6,0.2,5.2l0.6,1.2c3.9-1.5,8.9-2.8,12.9-1.9l0.1,0.1l2.8,5.2
	c-1.5,3.8-5.3,7.2-8.7,9.6l0.9,1.6c1,1.8,3.3,2.5,5.1,1.5l12.5-6.8l6.4-3.4C240.5,249.9,240.7,249.1,240.4,248.5"/>
<path class="st1" d="M213.3,254.3c0.4-3.4,4-8,6.9-11.7l-10.2,5.6L213.3,254.3z"/>
<polygon class="st1" points="274.6,343.4 274.6,344.4 276,343.8 276,348.2 277.1,348.2 277.1,342.6 276.9,342.6 "/>
<path class="st1" d="M384,347.4l1.2-1.3c0.1-0.2,0.3-0.3,0.4-0.5c0.1-0.1,0.2-0.3,0.3-0.5c0.1-0.2,0.2-0.3,0.2-0.5
	c0.1-0.2,0.1-0.4,0.1-0.5c0-0.2,0-0.4-0.1-0.7c-0.1-0.2-0.2-0.4-0.4-0.5c-0.2-0.2-0.4-0.3-0.6-0.4c-0.5-0.2-1-0.2-1.5,0
	c-0.2,0.1-0.4,0.2-0.6,0.4c-0.2,0.2-0.3,0.4-0.4,0.6s-0.1,0.5-0.1,0.7v0.2h1v-0.2c0-0.1,0-0.3,0-0.4s0.1-0.2,0.2-0.3
	c0.1-0.1,0.2-0.1,0.3-0.2c0.2-0.1,0.5-0.1,0.7,0c0.1,0,0.2,0.1,0.2,0.2c0.1,0.1,0.1,0.2,0.2,0.2c0,0.1,0,0.2,0,0.3
	c0,0.1,0,0.2,0,0.3c0,0.1-0.1,0.2-0.1,0.3c-0.1,0.1-0.1,0.2-0.2,0.4c-0.1,0.1-0.2,0.3-0.4,0.5l-1.8,2v0.7h3.8v-0.9L384,347.4z"/>
<path class="st2" d="M417.1,303.5H244.8c-17.9,0-32.5-14.5-32.5-32.5l0,0c0-17.9,14.5-32.5,32.5-32.5h172.3
	c17.9,0,32.5,14.5,32.5,32.5l0,0C449.6,289,435.1,303.5,417.1,303.5z"/>
<g>
	<g>
		<g>
			<g>
				<path d="M403.8,259.9h-3h-1.9H391h-1.9h-7.8h-1.9h-7.8h-1.9h-7.8h-1.9H352h-1.9h-7.8h-1.9h-7.8h-1.9h-7.8h-1.9H313h-1.9h-7.8
					h-1.9h-7.8h-1.9h-7.8h-1.9H274h-1.9h-7.8h-1.9h-3c-0.9,0-1.7,0.8-1.7,1.7v15.8c0,0.9,0.8,1.7,1.7,1.7h3h1.9h7.8h1.9h7.8h1.9h7.8
					h1.9h7.8h1.9h7.8h1.9h7.8h1.9h7.8h1.9h7.8h1.9h7.8h1.9h7.8h1.9h7.8h1.9h7.8h1.9h7.8h1.9h7.8h1.9h3c0.9,0,1.7-0.8,1.7-1.7v-15.8
					C405.5,260.6,404.7,259.9,403.8,259.9z"/>
			</g>
		</g>
		<g>
			<circle class="st1" cx="263.3" cy="265.8" r="1.5"/>
			<circle class="st1" cx="273" cy="265.8" r="1.5"/>
			<circle class="st1" cx="282.8" cy="265.8" r="1.5"/>
			<circle class="st1" cx="292.5" cy="265.8" r="1.5"/>
			<circle class="st1" cx="302.3" cy="265.8" r="1.5"/>
			<circle class="st1" cx="312" cy="265.8" r="1.5"/>
			<circle class="st1" cx="321.8" cy="265.8" r="1.5"/>
			<circle class="st1" cx="331.6" cy="265.8" r="1.5"/>
			<circle class="st1" cx="341.3" cy="265.8" r="1.5"/>
			<circle class="st1" cx="351.1" cy="265.8" r="1.5"/>
			<circle class="st1" cx="360.8" cy="265.8" r="1.5"/>
			<circle class="st1" cx="370.6" cy="265.8" r="1.5"/>
			<circle class="st1" cx="380.3" cy="265.8" r="1.5"/>
			<circle class="st1" cx="390.1" cy="265.8" r="1.5"/>
			<circle class="st1" cx="399.8" cy="265.8" r="1.5"/>
		</g>
		<g>
			<circle class="st1" cx="263.3" cy="272.9" r="1.5"/>
			<circle class="st1" cx="273" cy="272.9" r="1.5"/>
			<circle class="st1" cx="282.8" cy="272.9" r="1.5"/>
			<circle class="st1" cx="292.5" cy="272.9" r="1.5"/>
			<circle class="st1" cx="302.3" cy="272.9" r="1.5"/>
			<circle class="st1" cx="312" cy="272.9" r="1.5"/>
			<circle class="st1" cx="321.8" cy="272.9" r="1.5"/>
			<circle class="st1" cx="331.6" cy="272.9" r="1.5"/>
			<circle class="st1" cx="341.3" cy="272.9" r="1.5"/>
			<circle class="st1" cx="351.1" cy="272.9" r="1.5"/>
			<circle class="st1" cx="360.8" cy="272.9" r="1.5"/>
			<circle class="st1" cx="370.6" cy="272.9" r="1.5"/>
			<circle class="st1" cx="380.3" cy="272.9" r="1.5"/>
			<circle class="st1" cx="390.1" cy="272.9" r="1.5"/>
			<circle class="st1" cx="399.8" cy="272.9" r="1.5"/>
		</g>
	</g>
</g>
</svg>
